Coordinates
version=1
nRows=6
nColumns=34
inDegrees=yes

Units are S.I. units (second, meters, Newtons, ...)
If the header above contains a line with 'inDegrees', this indicates whether rotational values are in degrees (yes) or radians (no).

endheader
time	pelvis_tilt	pelvis_list	pelvis_rotation	pelvis_tx	pelvis_ty	pelvis_tz	hip_flexion_r	hip_adduction_r	hip_rotation_r	knee_angle_r	ankle_angle_r	subtalar_angle_r	mtp_angle_r	hip_flexion_l	hip_adduction_l	hip_rotation_l	knee_angle_l	ankle_angle_l	subtalar_angle_l	mtp_angle_l	lumbar_extension	lumbar_bending	lumbar_rotation	arm_flex_r	arm_add_r	arm_rot_r	elbow_flex_r	pro_sup_r	arm_flex_l	arm_add_l	arm_rot_l	elbow_flex_l	pro_sup_l
      0.00000000	     -0.88505739	    -10.02348975	    -51.73372180	      1.53625566	      0.92986557	      6.21776400	     42.09401873	     10.76762020	      5.79277367	     28.86450413	    -13.35128243	      6.99672175	      0.00000000	     43.92783081	     14.59315728	    -20.82184990	     49.69329629	     18.34946522	      5.59391012	      0.00000000	    -25.57555834	      2.11479985	     34.56016459	     34.89860062	     27.84352175	     24.58089388	     35.05272102	     92.75682334	     13.41421224	     48.42319910	     67.24191808	     29.54350498	     76.19269596
      0.01666670	     -0.89470821	    -10.02620115	    -51.78345554	      1.53621857	      0.92978279	      6.21757221	     42.10403480	     10.78290047	      5.78578351	     28.86175936	    -13.36557091	      7.00993116	      0.00000000	     43.92504437	     14.57011771	    -20.80647531	     49.65634747	     18.35170073	      5.59594187	      0.00000000	    -25.58351141	      2.10258220	     34.45429768	     34.87210720	     27.80046759	     24.56748413	     35.02861704	     92.76086035	     13.37408870	     48.37841681	     67.26308896	     29.53783523	     76.19426880
      0.03333330	     -0.94999330	     -9.91308082	    -51.58695481	      1.53662371	      0.92980831	      6.21647360	     42.24136374	     10.57731267	      5.81786944	     28.75838866	    -13.70908711	      7.26327058	      0.00000000	     43.81802491	     14.74783868	    -20.47924835	     49.22699505	     18.30427774	      6.10272833	      0.00000000	    -25.51919416	      2.26133152	     33.79035052	     34.72126735	     27.73205430	     24.43721585	     34.82985095	     92.87442821	     13.50411376	     47.96876148	     67.20833574	     29.22572152	     76.16288898
      0.05000000	     -0.99760363	     -9.90446452	    -51.72669767	      1.53697446	      0.92902616	      6.21498554	     42.45279947	     10.55287122	      5.72089256	     28.90289475	    -13.79588661	      7.31137156	      0.00000000	     43.62777057	     14.76593510	    -20.18463292	     48.70255824	     18.20848513	      6.45289974	      0.00000000	    -25.48915717	      2.55709597	     33.70657412	     34.63875332	     27.61610187	     24.31223284	     34.64862795	     92.91031551	     13.86516963	     47.76162398	     66.94378493	     28.97582993	     76.11892112
      0.06666670	     -1.16288007	    -10.15017655	    -51.09606783	      1.53786040	      0.92828618	      6.21288321	     42.58414306	     10.17742073	      4.67483301	     29.05619002	    -13.89439207	      7.54880946	      0.00000000	     43.13424092	     14.95256751	    -19.47722386	     48.12627667	     18.25453821	      7.79952292	      0.00000000	    -25.63629685	      3.36978023	     32.83879332	     34.83517262	     27.95446709	     24.12717349	     34.06214402	     93.32849090	     14.59121245	     47.78320363	     65.31390630	     28.24493040	     75.90727653
      0.08333330	     -1.26354800	    -10.06854681	    -51.27686641	      1.53885397	      0.92778734	      6.21138864	     42.73130805	     10.15184487	      4.71886565	     28.97799950	    -14.02769512	      7.70419902	      0.00000000	     42.89336249	     15.11213512	    -19.15071752	     47.47471660	     18.03457681	      8.29723642	      0.00000000	    -25.51628122	      3.80259220	     32.94651040	     34.71000489	     27.94379533	     24.14522149	     34.02814159	     93.39756339	     15.09962567	     47.59490318	     64.97195141	     28.03207686	     75.87775835
